<?xml version="1.0" standalone="no"?>
<!DOCTYPE svg PUBLIC "-//W3C//DTD SVG 20010904//EN"
 "http://www.w3.org/TR/2001/REC-SVG-20010904/DTD/svg10.dtd">
<svg version="1.0" xmlns="http://www.w3.org/2000/svg"
 width="2114.000000pt" height="2114.000000pt" viewBox="0 0 2114.000000 2114.000000"
 preserveAspectRatio="xMidYMid meet">
<metadata>
Created by potrace 1.11, written by Peter Selinger 2001-2013
</metadata>
<g transform="translate(0.000000,2114.000000) scale(0.100000,-0.100000)"
fill="#000000" stroke="none">
<path d="M0 10570 l0 -10570 10570 0 10570 0 0 10570 0 10570 -10570 0 -10570
0 0 -10570z m11530 9970 c785 -40 1520 -161 2249 -371 2526 -727 4674 -2465
5924 -4795 48 -89 87 -169 87 -178 0 -15 -60 -16 -670 -16 l-670 0 -28 46
c-15 26 -93 146 -173 268 -548 830 -1220 1544 -2021 2147 -1274 959 -2767
1538 -4363 1693 -535 52 -1250 47 -1778 -14 -1645 -190 -3169 -827 -4457
-1864 -448 -361 -935 -848 -1296 -1296 -1012 -1257 -1646 -2741 -1848 -4330
-78 -610 -90 -1262 -35 -1870 152 -1691 807 -3303 1883 -4640 361 -448 848
-935 1296 -1296 1115 -898 2428 -1505 3820 -1768 533 -100 1032 -146 1595
-146 331 0 531 9 815 36 2420 229 4627 1467 6093 3419 132 177 393 559 469
689 l28 46 670 0 c610 0 670 -1 670 -16 0 -33 -247 -476 -418 -749 -670 -1072
-1574 -2035 -2603 -2772 -1925 -1380 -4253 -2009 -6634 -1792 -1551 141 -3035
647 -4355 1487 -1158 735 -2167 1728 -2925 2877 -849 1287 -1382 2754 -1554
4279 -48 416 -55 577 -55 1126 0 410 3 571 17 736 72 882 219 1608 487 2404
785 2339 2439 4304 4621 5491 197 107 609 307 809 392 1069 455 2192 715 3350
776 226 12 775 12 1000 1z m-44 -2030 c1798 -104 3447 -792 4784 -1996 140
-126 475 -462 596 -599 223 -252 554 -679 554 -716 0 -18 -80 -19 -3477 -22
-3829 -3 -3502 2 -3873 -62 -1097 -191 -2091 -803 -2780 -1710 -479 -630 -781
-1401 -872 -2220 -17 -161 -17 -729 0 -890 137 -1235 742 -2319 1718 -3076
553 -428 1244 -734 1934 -854 371 -64 44 -59 3873 -62 3414 -3 3477 -4 3477
-22 0 -36 -334 -467 -554 -716 -121 -137 -456 -473 -596 -599 -1248 -1124
-2789 -1807 -4445 -1970 -511 -50 -1128 -47 -1640 9 -2080 229 -3965 1280
-5266 2935 -708 900 -1213 1966 -1463 3080 -121 542 -174 1003 -183 1585 -6
366 3 618 32 905 180 1771 968 3426 2242 4706 1359 1367 3146 2179 5043 2293
201 12 693 12 896 1z"/>
</g>
</svg>
